<?xml version="1.0" encoding="utf-8"?>
<!-- Generator: Adobe Illustrator 21.1.0, SVG Export Plug-In . SVG Version: 6.00 Build 0)  -->
<svg version="1.1" id="Layer_1" xmlns="http://www.w3.org/2000/svg" xmlns:xlink="http://www.w3.org/1999/xlink" x="0px" y="0px"
	 viewBox="0 0 100 100" enable-background="new 0 0 100 100" xml:space="preserve">
<g>
	<polygon fill="#F1B57D" points="27.408,82.359 27.408,94.493 32.146,91.459 36.885,94.493 36.885,82.359 	"/>
	<rect x="68.954" y="5.507" fill="#F1B57D" width="4.738" height="82.918"/>
	<g>
		<path fill="#6AC9CC" d="M24.235,76.292c-3.501,0-6.375,2.664-6.695,6.067c0.32,3.403,3.194,6.067,6.695,6.067h3.173v-6.067h9.477
			v6.067h32.069V76.292H24.235z"/>
		<rect x="73.692" y="76.292" fill="#6AC9CC" width="8.8" height="12.134"/>
	</g>
	<g>
		<path fill="#3792CF" d="M68.954,5.507H24.235c-3.715,0-6.727,2.999-6.727,6.699v69.521c0,0.213,0.012,0.424,0.032,0.632
			c0.32-3.403,3.194-6.067,6.695-6.067h44.719V5.507z"/>
		<rect x="73.692" y="5.507" fill="#3792CF" width="8.8" height="70.784"/>
	</g>
	<g>
		<ellipse fill="#FEE36F" cx="46.488" cy="28.428" rx="16.415" ry="16.347"/>
		<ellipse fill="#FEE36F" cx="46.488" cy="28.428" rx="8.1" ry="16.347"/>
		<path fill="#FEE36F" d="M35.337,16.437c2.928,2.702,6.845,4.355,11.152,4.355s8.224-1.654,11.152-4.355
			c-2.928-2.702-6.845-4.355-11.152-4.355S38.265,13.735,35.337,16.437z"/>
		<path fill="#FEE36F" d="M35.337,40.419c2.928-2.702,6.845-4.355,11.152-4.355s8.224,1.654,11.152,4.355
			c-2.928,2.702-6.845,4.355-11.152,4.355S38.265,43.121,35.337,40.419z"/>
	</g>
	<rect x="30.074" y="51.568" fill="#FFFFFF" width="32.83" height="18.149"/>
	<path fill="#136296" d="M82.492,5.002h-8.8h-4.739H24.235C20.245,5.002,17,8.234,17,12.206v69.521c0,0.226,0.013,0.449,0.034,0.67
		c0,0.003,0,0.006,0,0.009c0.35,3.72,3.445,6.526,7.2,6.526H26.9v5.561c0,0.185,0.102,0.355,0.264,0.444
		c0.076,0.041,0.16,0.062,0.243,0.062c0.096,0,0.191-0.027,0.275-0.08l4.464-2.858l4.464,2.858c0.157,0.101,0.354,0.106,0.518,0.019
		c0.163-0.089,0.264-0.259,0.264-0.444v-5.561h31.561h4.739h8.8c0.281,0,0.508-0.226,0.508-0.506V76.292V5.507
		C83,5.228,82.773,5.002,82.492,5.002z M81.985,75.786H74.2V6.013h7.784V75.786z M81.985,81.853H74.2v-5.056h7.784V81.853z
		 M18.015,12.206c0-3.415,2.79-6.193,6.219-6.193h44.211v69.773H24.235c-0.209,0-0.416,0.012-0.621,0.029
		c-0.056,0.005-0.112,0.011-0.168,0.017c-0.168,0.018-0.335,0.041-0.499,0.07c-0.038,0.007-0.077,0.012-0.114,0.019
		c-0.196,0.038-0.389,0.084-0.58,0.138c-0.046,0.013-0.092,0.028-0.138,0.042c-0.152,0.046-0.303,0.097-0.451,0.152
		c-0.047,0.018-0.094,0.034-0.14,0.053c-0.182,0.073-0.361,0.151-0.535,0.237c-0.026,0.013-0.051,0.028-0.077,0.041
		c-0.15,0.077-0.297,0.159-0.441,0.246c-0.045,0.027-0.09,0.055-0.135,0.083c-0.153,0.097-0.302,0.198-0.446,0.305
		c-0.012,0.009-0.024,0.017-0.036,0.025c-0.155,0.117-0.304,0.242-0.449,0.371c-0.037,0.033-0.073,0.067-0.11,0.101
		c-0.117,0.109-0.23,0.221-0.339,0.337c-0.027,0.029-0.056,0.057-0.083,0.086c-0.13,0.143-0.255,0.291-0.373,0.445
		c-0.025,0.032-0.048,0.066-0.072,0.098c-0.096,0.128-0.187,0.26-0.274,0.394c-0.027,0.042-0.054,0.083-0.08,0.125
		c-0.019,0.031-0.04,0.06-0.058,0.091V12.206z M24.235,87.92c-3.209,0-5.858-2.384-6.183-5.554c0.01-0.101,0.028-0.2,0.042-0.299
		c0.014-0.091,0.023-0.183,0.041-0.272c0.019-0.1,0.047-0.197,0.071-0.295c0.022-0.091,0.041-0.183,0.067-0.273
		c0.027-0.092,0.061-0.181,0.093-0.271c0.032-0.091,0.06-0.184,0.095-0.274c0.033-0.084,0.073-0.163,0.11-0.245
		c0.041-0.092,0.08-0.185,0.125-0.274c0.039-0.076,0.084-0.148,0.126-0.222c0.051-0.09,0.099-0.181,0.154-0.268
		c0.044-0.069,0.093-0.133,0.139-0.2c0.06-0.087,0.118-0.176,0.182-0.26c0.047-0.061,0.099-0.118,0.149-0.177
		c0.07-0.084,0.138-0.17,0.212-0.251c0.05-0.054,0.105-0.103,0.157-0.155c0.079-0.08,0.157-0.162,0.241-0.237
		c0.053-0.047,0.11-0.09,0.164-0.135c0.088-0.074,0.175-0.15,0.267-0.219c0.056-0.042,0.116-0.079,0.174-0.119
		c0.095-0.067,0.189-0.135,0.288-0.196c0.061-0.038,0.126-0.069,0.188-0.105c0.1-0.057,0.199-0.116,0.303-0.168
		c0.068-0.034,0.139-0.061,0.208-0.092c0.103-0.046,0.204-0.095,0.309-0.136c0.074-0.029,0.152-0.051,0.228-0.077
		c0.104-0.036,0.206-0.075,0.313-0.105c0.086-0.024,0.175-0.041,0.262-0.062c0.1-0.024,0.198-0.052,0.3-0.071
		c0.114-0.021,0.231-0.034,0.347-0.049c0.078-0.01,0.154-0.025,0.233-0.033c0.196-0.018,0.395-0.028,0.597-0.028h44.211v5.056
		H36.885h-9.477h-3.385v1.011H26.9v5.056H24.235z M36.377,93.566l-3.956-2.532c-0.084-0.054-0.179-0.08-0.275-0.08
		s-0.191,0.027-0.275,0.08l-3.956,2.532v-5.141v-5.561h8.462v5.561V93.566z M37.392,82.864h31.054v5.056H37.392V82.864z
		 M69.461,76.292V6.013h3.723v70.279V87.92h-3.723V76.292z M74.2,87.92v-5.056h7.784v5.056H74.2z"/>
	<g>
		<path fill="#FFFFFF" d="M24.023,11.576c-0.281,0-0.508,0.226-0.508,0.506v1.77c0,0.279,0.227,0.506,0.508,0.506
			s0.508-0.226,0.508-0.506v-1.77C24.531,11.802,24.304,11.576,24.023,11.576z"/>
		<path fill="#FFFFFF" d="M24.023,24.165c-0.281,0-0.508,0.226-0.508,0.506v3.606c0,0.279,0.227,0.506,0.508,0.506
			s0.508-0.226,0.508-0.506V24.67C24.531,24.391,24.304,24.165,24.023,24.165z"/>
		<path fill="#FFFFFF" d="M24.023,16.952c-0.281,0-0.508,0.226-0.508,0.506v3.606c0,0.279,0.227,0.506,0.508,0.506
			s0.508-0.226,0.508-0.506v-3.606C24.531,17.178,24.304,16.952,24.023,16.952z"/>
		<path fill="#FFFFFF" d="M24.023,31.378c-0.281,0-0.508,0.226-0.508,0.506v3.606c0,0.279,0.227,0.506,0.508,0.506
			s0.508-0.226,0.508-0.506v-3.606C24.531,31.604,24.304,31.378,24.023,31.378z"/>
		<path fill="#FFFFFF" d="M24.023,53.016c-0.281,0-0.508,0.226-0.508,0.506v3.607c0,0.279,0.227,0.506,0.508,0.506
			s0.508-0.226,0.508-0.506v-3.607C24.531,53.243,24.304,53.016,24.023,53.016z"/>
		<path fill="#FFFFFF" d="M24.023,45.804c-0.281,0-0.508,0.226-0.508,0.506v3.606c0,0.279,0.227,0.506,0.508,0.506
			s0.508-0.226,0.508-0.506v-3.606C24.531,46.03,24.304,45.804,24.023,45.804z"/>
		<path fill="#FFFFFF" d="M24.023,38.591c-0.281,0-0.508,0.226-0.508,0.506v3.606c0,0.279,0.227,0.506,0.508,0.506
			s0.508-0.226,0.508-0.506v-3.606C24.531,38.817,24.304,38.591,24.023,38.591z"/>
		<path fill="#FFFFFF" d="M24.023,60.229c-0.281,0-0.508,0.226-0.508,0.506v3.607c0,0.279,0.227,0.506,0.508,0.506
			s0.508-0.226,0.508-0.506v-3.607C24.531,60.455,24.304,60.229,24.023,60.229z"/>
		<path fill="#FFFFFF" d="M24.023,67.443c-0.281,0-0.508,0.226-0.508,0.506v1.77c0,0.279,0.227,0.506,0.508,0.506
			s0.508-0.226,0.508-0.506v-1.77C24.531,67.669,24.304,67.443,24.023,67.443z"/>
	</g>
	<path fill="#136296" d="M34.968,40.757c0.009,0.01,0.014,0.024,0.024,0.033c1.044,0.963,2.195,1.779,3.42,2.444
		c0.017,0.009,0.034,0.018,0.05,0.027c0.216,0.116,0.433,0.227,0.654,0.334c0.038,0.018,0.076,0.036,0.114,0.054
		c0.2,0.095,0.401,0.186,0.604,0.272c0.059,0.025,0.118,0.049,0.176,0.074c0.184,0.076,0.369,0.149,0.555,0.218
		c0.078,0.029,0.156,0.057,0.234,0.085c0.17,0.06,0.34,0.118,0.512,0.173c0.094,0.03,0.189,0.06,0.284,0.089
		c0.159,0.048,0.318,0.092,0.478,0.135c0.107,0.029,0.215,0.058,0.323,0.084c0.151,0.038,0.304,0.072,0.456,0.105
		c0.116,0.025,0.232,0.051,0.349,0.074c0.149,0.029,0.299,0.055,0.45,0.08c0.12,0.02,0.24,0.042,0.361,0.059
		c0.154,0.023,0.31,0.041,0.465,0.059c0.117,0.014,0.234,0.03,0.352,0.041c0.175,0.017,0.351,0.028,0.527,0.04
		c0.099,0.007,0.198,0.016,0.298,0.021c0.277,0.014,0.555,0.021,0.835,0.021s0.557-0.008,0.835-0.021
		c0.1-0.005,0.198-0.014,0.297-0.021c0.176-0.012,0.353-0.023,0.528-0.04c0.118-0.011,0.234-0.027,0.351-0.041
		c0.156-0.018,0.312-0.036,0.466-0.059c0.121-0.018,0.24-0.039,0.36-0.059c0.151-0.025,0.302-0.051,0.452-0.081
		c0.116-0.023,0.231-0.049,0.347-0.074c0.154-0.034,0.307-0.068,0.459-0.106c0.107-0.027,0.213-0.055,0.32-0.084
		c0.161-0.043,0.322-0.088,0.481-0.136c0.094-0.028,0.187-0.058,0.281-0.088c0.173-0.055,0.345-0.113,0.516-0.174
		c0.077-0.027,0.153-0.055,0.23-0.084c0.188-0.07,0.375-0.144,0.561-0.22c0.057-0.024,0.114-0.047,0.171-0.071
		c0.205-0.087,0.408-0.179,0.61-0.275c0.036-0.017,0.072-0.034,0.108-0.051c0.222-0.107,0.442-0.22,0.66-0.337
		c0.014-0.008,0.029-0.015,0.044-0.023c1.226-0.665,2.378-1.481,3.423-2.445c0.01-0.01,0.015-0.023,0.024-0.034
		c3.32-3.079,5.402-7.465,5.402-12.328c0-4.863-2.082-9.249-5.402-12.328c-0.009-0.01-0.014-0.024-0.024-0.034
		c-1.045-0.964-2.197-1.781-3.424-2.446c-0.013-0.007-0.026-0.014-0.039-0.021c-0.219-0.118-0.44-0.231-0.664-0.339
		c-0.035-0.017-0.071-0.033-0.106-0.05c-0.202-0.096-0.406-0.188-0.612-0.276c-0.056-0.024-0.113-0.047-0.169-0.071
		c-0.186-0.077-0.374-0.151-0.563-0.221c-0.076-0.028-0.151-0.056-0.227-0.083c-0.172-0.061-0.344-0.119-0.518-0.175
		c-0.093-0.03-0.185-0.059-0.279-0.087c-0.16-0.048-0.321-0.093-0.482-0.137c-0.106-0.029-0.212-0.057-0.319-0.084
		c-0.152-0.038-0.305-0.072-0.459-0.106c-0.115-0.025-0.231-0.051-0.347-0.074c-0.15-0.029-0.301-0.055-0.452-0.081
		c-0.12-0.02-0.239-0.041-0.36-0.059c-0.155-0.023-0.311-0.041-0.466-0.059c-0.117-0.014-0.233-0.03-0.351-0.041
		c-0.175-0.017-0.352-0.028-0.528-0.04c-0.099-0.007-0.197-0.016-0.297-0.021c-0.277-0.014-0.556-0.021-0.835-0.021
		s-0.557,0.008-0.835,0.021c-0.1,0.005-0.198,0.014-0.298,0.021c-0.176,0.012-0.352,0.023-0.527,0.04
		c-0.118,0.011-0.235,0.027-0.352,0.041c-0.155,0.018-0.311,0.036-0.465,0.059c-0.121,0.018-0.241,0.039-0.361,0.059
		c-0.15,0.025-0.3,0.051-0.45,0.08c-0.117,0.023-0.233,0.049-0.349,0.074c-0.153,0.033-0.305,0.068-0.456,0.105
		c-0.108,0.027-0.215,0.056-0.322,0.084c-0.16,0.043-0.32,0.088-0.479,0.136c-0.094,0.028-0.188,0.058-0.282,0.088
		c-0.172,0.055-0.344,0.113-0.514,0.174c-0.077,0.028-0.155,0.056-0.232,0.084c-0.187,0.07-0.373,0.143-0.558,0.219
		c-0.058,0.024-0.116,0.048-0.174,0.073c-0.204,0.087-0.406,0.178-0.606,0.273c-0.037,0.018-0.074,0.035-0.111,0.053
		c-0.221,0.107-0.441,0.219-0.657,0.336c-0.015,0.008-0.031,0.016-0.046,0.024c-1.226,0.665-2.377,1.481-3.422,2.444
		c-0.01,0.01-0.015,0.023-0.024,0.034c-3.32,3.079-5.402,7.465-5.402,12.328C29.566,33.292,31.648,37.678,34.968,40.757z
		 M37.887,28.934c0.044,3.06,0.483,5.894,1.228,8.311c-1.348,0.651-2.612,1.483-3.759,2.484c-2.831-2.766-4.627-6.574-4.761-10.795
		H37.887z M41.016,13.553c0.019-0.007,0.037-0.013,0.056-0.019c0.211-0.076,0.424-0.148,0.638-0.216
		c0.07-0.022,0.141-0.042,0.211-0.063c0.165-0.049,0.33-0.097,0.497-0.141c0.092-0.024,0.185-0.047,0.277-0.069
		c0.1-0.024,0.2-0.047,0.3-0.069c-1.443,1.223-2.668,3.189-3.558,5.668c-1.19-0.587-2.312-1.323-3.335-2.202
		C37.542,15.206,39.201,14.218,41.016,13.553z M50.557,13.114c0.168,0.044,0.335,0.092,0.501,0.142
		c0.069,0.021,0.138,0.04,0.207,0.061c0.217,0.068,0.433,0.141,0.646,0.218c0.016,0.006,0.032,0.011,0.049,0.017
		c1.816,0.664,3.475,1.653,4.913,2.89c-1.023,0.879-2.144,1.614-3.335,2.202c-0.89-2.479-2.115-4.445-3.558-5.668
		c0.101,0.023,0.202,0.045,0.302,0.07C50.374,13.068,50.465,13.09,50.557,13.114z M51.959,43.303
		c-0.016,0.006-0.032,0.011-0.049,0.017c-0.213,0.077-0.429,0.15-0.646,0.218c-0.069,0.022-0.138,0.041-0.207,0.061
		c-0.166,0.05-0.333,0.098-0.501,0.142c-0.091,0.024-0.183,0.046-0.274,0.068c-0.1,0.025-0.201,0.047-0.302,0.07
		c1.443-1.223,2.668-3.189,3.558-5.668c1.19,0.587,2.312,1.323,3.335,2.202C55.434,41.65,53.776,42.639,51.959,43.303z
		 M42.419,43.742c-0.167-0.044-0.332-0.092-0.497-0.141c-0.07-0.021-0.141-0.041-0.211-0.063c-0.215-0.068-0.428-0.139-0.638-0.216
		c-0.019-0.007-0.038-0.013-0.056-0.019c-1.816-0.664-3.474-1.653-4.911-2.89c1.023-0.879,2.144-1.614,3.335-2.202
		c0.89,2.479,2.114,4.445,3.558,5.668c-0.1-0.022-0.201-0.045-0.3-0.069C42.604,43.788,42.511,43.766,42.419,43.742z M40.368,37.788
		c1.767-0.734,3.664-1.146,5.612-1.207v7.649C43.68,43.911,41.657,41.447,40.368,37.788z M46.996,44.23v-7.649
		c1.948,0.061,3.846,0.473,5.613,1.207C51.32,41.447,49.296,43.911,46.996,44.23z M46.996,35.57v-6.636h7.079
		c-0.044,2.892-0.46,5.589-1.153,7.892C51.054,36.06,49.052,35.631,46.996,35.57z M46.996,27.923v-6.636
		c2.056-0.061,4.058-0.49,5.926-1.255c0.693,2.302,1.109,5,1.153,7.892H46.996z M46.996,20.276v-7.649
		c2.3,0.319,4.324,2.782,5.613,6.441C50.842,19.802,48.944,20.214,46.996,20.276z M45.981,12.626v7.649
		c-1.948-0.061-3.846-0.473-5.612-1.208C41.657,15.409,43.68,12.945,45.981,12.626z M45.981,21.286v6.636h-7.078
		c0.044-2.892,0.46-5.589,1.153-7.892C41.922,20.796,43.925,21.225,45.981,21.286z M45.981,28.934v6.636
		c-2.056,0.061-4.058,0.49-5.925,1.255c-0.693-2.302-1.109-5-1.153-7.892H45.981z M57.622,39.728c-1.148-1-2.412-1.833-3.759-2.484
		c0.744-2.417,1.184-5.25,1.228-8.311h7.293C62.249,33.154,60.452,36.962,57.622,39.728z M62.383,27.923H55.09
		c-0.044-3.061-0.483-5.894-1.228-8.311c1.348-0.651,2.612-1.483,3.759-2.484C60.452,19.894,62.249,23.702,62.383,27.923z
		 M35.355,17.128c1.148,1,2.412,1.833,3.759,2.484c-0.744,2.417-1.184,5.251-1.228,8.311h-7.293
		C30.728,23.702,32.525,19.894,35.355,17.128z"/>
	<path fill="#136296" d="M30.074,70.223h32.83c0.281,0,0.508-0.226,0.508-0.506v-18.15c0-0.279-0.227-0.506-0.508-0.506h-32.83
		c-0.281,0-0.508,0.226-0.508,0.506v18.15C29.566,69.997,29.793,70.223,30.074,70.223z M30.581,52.074h31.815v17.138H30.581V52.074z
		"/>
</g>
</svg>
